<svg width="15" height="15" viewBox="0 0 15 15" fill="none" xmlns="http://www.w3.org/2000/svg">
<path d="M13.4819 12.9143H1.50146C0.71905 12.9143 0.0825195 12.2776 0.0825195 11.4952V3.48803C0.0825195 2.70562 0.71905 2.06909 1.50146 2.06909H13.4819C14.2643 2.06909 14.9009 2.70562 14.9009 3.48803V11.4954C14.9009 12.2776 14.2643 12.9143 13.4819 12.9143ZM1.50146 2.72752C1.08226 2.72752 0.741113 3.06867 0.741113 3.48803V11.4954C0.741113 11.9147 1.08226 12.2557 1.50146 12.2557H13.4819C13.9013 12.2557 14.2423 11.9147 14.2423 11.4954V3.48803C14.2423 3.06884 13.9013 2.72769 13.4819 2.72769L1.50146 2.72752Z" fill="white"/>
<path d="M7.49146 8.14547C7.30343 8.14547 7.1154 8.10496 6.94022 8.02412L0.273438 4.9447L0.549718 4.34686L7.21633 7.42628C7.39119 7.50696 7.59157 7.50713 7.76659 7.42628L14.419 4.35345L14.6953 4.95129L8.04287 8.02396C7.86752 8.10496 7.67965 8.14547 7.49146 8.14547Z" fill="white"/>
</svg>
