<svg width="15" height="15" viewBox="0 0 15 15" fill="none" xmlns="http://www.w3.org/2000/svg">
<g clip-path="url(#clip0_27_164)">
<path d="M10.4025 14.9008H4.58104C2.10045 14.9008 0.0825195 12.8828 0.0825195 10.4024V4.58092C0.0825195 2.10033 2.10045 0.0823975 4.58104 0.0823975H10.4025C12.8829 0.0823975 14.9009 2.10033 14.9009 4.58092V10.4024C14.9009 12.8828 12.8829 14.9008 10.4025 14.9008ZM4.58104 0.90564C2.55455 0.90564 0.905762 2.55443 0.905762 4.58092V10.4024C0.905762 12.4287 2.55455 14.0775 4.58104 14.0775H10.4025C12.4288 14.0775 14.0776 12.4287 14.0776 10.4024V4.58092C14.0776 2.55443 12.4288 0.90564 10.4025 0.90564H4.58104Z" fill="white"/>
<path d="M7.5345 11.6076C5.28853 11.6076 3.46143 9.78036 3.46143 7.53456C3.46143 5.28859 5.28869 3.46149 7.5345 3.46149C9.78047 3.46149 11.6077 5.28876 11.6077 7.53456C11.6077 9.78036 9.78047 11.6076 7.5345 11.6076ZM7.5345 4.28473C5.74247 4.28473 4.28467 5.74253 4.28467 7.53456C4.28467 9.32643 5.74247 10.7844 7.5345 10.7844C9.3267 10.7844 10.7845 9.32659 10.7845 7.53456C10.7845 5.74253 9.3267 4.28473 7.5345 4.28473Z" fill="white"/>
<path d="M11.8013 4.09161C12.2573 4.09161 12.627 3.72193 12.627 3.2659C12.627 2.80987 12.2573 2.44019 11.8013 2.44019C11.3453 2.44019 10.9756 2.80987 10.9756 3.2659C10.9756 3.72193 11.3453 4.09161 11.8013 4.09161Z" fill="white"/>
</g>
<defs>
<clipPath id="clip0_27_164">
<rect width="15" height="15" fill="white"/>
</clipPath>
</defs>
</svg>
