<svg width="30" height="31" viewBox="0 0 30 31" fill="none" xmlns="http://www.w3.org/2000/svg">
<path d="M29.022 10.0218H0.944814C0.514094 10.0218 0.165039 9.66107 0.165039 9.21599V6.74424C0.165039 6.29917 0.514094 5.93848 0.944814 5.93848H29.0217C29.4524 5.93848 29.8014 6.29917 29.8014 6.74424V9.21565C29.8018 9.66107 29.4527 10.0218 29.022 10.0218Z" fill="#878787"/>
<path d="M25.4938 17.5243H4.47313C4.04241 17.5243 3.69336 17.1637 3.69336 16.7186V14.2472C3.69336 13.8021 4.04241 13.4414 4.47313 13.4414H25.4938C25.9245 13.4414 26.2736 13.8021 26.2736 14.2472V16.7186C26.2736 17.1637 25.9245 17.5243 25.4938 17.5243Z" fill="#878787"/>
<path d="M20.2012 25.0263H9.76513C9.33441 25.0263 8.98535 24.6656 8.98535 24.2205V21.7491C8.98535 21.304 9.33441 20.9434 9.76513 20.9434H20.2012C20.6319 20.9434 20.981 21.304 20.981 21.7491V24.2205C20.981 24.6656 20.6319 25.0263 20.2012 25.0263Z" fill="#878787"/>
</svg>
