<svg width="16" height="16" viewBox="0 0 16 16" fill="none" xmlns="http://www.w3.org/2000/svg">
<path d="M12.3165 15.8942H3.66561C2.87108 15.8942 2.22461 15.2477 2.22461 14.4532V7.44643C2.22461 6.6519 2.87108 6.00542 3.66561 6.00542H12.3165C13.1111 6.00542 13.7576 6.6519 13.7576 7.44643V14.4532C13.7576 15.2477 13.1111 15.8942 12.3165 15.8942ZM3.66561 6.70792C3.25834 6.70792 2.92711 7.03915 2.92711 7.44643V14.4532C2.92711 14.8603 3.25834 15.1917 3.66561 15.1917H12.3165C12.7236 15.1917 13.0551 14.8603 13.0551 14.4532V7.44643C13.0551 7.03915 12.7236 6.70792 12.3165 6.70792H3.66561Z" fill="white"/>
<path d="M7.99116 13.5202C7.46921 13.5202 7.04455 13.0956 7.04455 12.5734V11.1402C6.65202 10.7984 6.47324 10.2705 6.58511 9.74483C6.70032 9.20285 7.14219 8.76256 7.68452 8.64928C8.11797 8.55936 8.56019 8.66438 8.89862 8.93924C9.2367 9.21392 9.43059 9.62137 9.43059 10.0566C9.43059 10.4761 9.24952 10.8685 8.93796 11.1402V12.5734C8.93796 13.0956 8.5133 13.5202 7.99116 13.5202ZM7.99204 9.31964C7.93813 9.31964 7.88333 9.32526 7.82818 9.33703C7.55386 9.39428 7.33046 9.61698 7.27216 9.89095C7.207 10.1972 7.33117 10.5042 7.58846 10.6728C7.68733 10.7378 7.74705 10.8483 7.74705 10.9667V12.5734C7.74705 12.7082 7.85664 12.8177 7.99116 12.8177C8.12569 12.8177 8.23546 12.7082 8.23546 12.5734V10.9667C8.23546 10.8483 8.29517 10.7378 8.39405 10.6728C8.60304 10.5358 8.72791 10.3054 8.72791 10.0566C8.72791 9.8337 8.62868 9.62523 8.45517 9.48438C8.32204 9.37619 8.16152 9.31964 7.99204 9.31964Z" fill="white"/>
<path d="M11.6766 6.70792C11.4828 6.70792 11.3254 6.55056 11.3254 6.35667V3.82153C11.3254 2.15028 9.96553 0.790414 8.29428 0.790414H7.6882C6.01678 0.790414 4.65709 2.15028 4.65709 3.82153V6.35667C4.65709 6.55056 4.49973 6.70792 4.30584 6.70792C4.11195 6.70792 3.95459 6.55056 3.95459 6.35667V3.82153C3.95441 1.76285 5.62935 0.0879135 7.68803 0.0879135H8.29411C10.353 0.0879135 12.0279 1.76285 12.0279 3.82153V6.35667C12.0279 6.55074 11.8707 6.70792 11.6766 6.70792Z" fill="white"/>
</svg>
