<svg width="15" height="15" viewBox="0 0 15 15" fill="none" xmlns="http://www.w3.org/2000/svg">
<g clip-path="url(#clip0_27_172)">
<path d="M3.43052 0.411694C3.49506 0.411694 3.55582 0.4466 3.58907 0.50258L5.44713 3.6337C5.4799 3.68902 5.48138 3.75867 5.45108 3.81531L4.29904 5.96134C4.12171 6.29162 4.18066 6.69139 4.44574 6.95647L6.23646 8.74719L8.02717 10.5379C8.18639 10.6971 8.39829 10.7849 8.62369 10.7849C8.76233 10.7849 8.90014 10.7501 9.02247 10.6846L11.1685 9.53256C11.1953 9.51824 11.2255 9.51066 11.2558 9.51066C11.2889 9.51066 11.3215 9.51955 11.3499 9.53651L14.4811 11.3946C14.5612 11.4422 14.5935 11.5419 14.5563 11.6266C14.284 12.2461 13.7981 13.36 13.6032 13.8571C13.579 13.9186 13.5472 13.9669 13.5085 14.0005C13.0708 14.3793 12.5061 14.5715 11.8294 14.5715C9.8798 14.5715 7.0867 12.9895 4.54025 10.4431C2.9099 8.81272 1.63618 7.03221 0.953711 5.42952C0.443136 4.23006 0.0336555 2.5704 0.983183 1.47516C1.01677 1.43647 1.06501 1.40452 1.12659 1.38049C1.62367 1.18554 2.73751 0.6995 3.35708 0.427336C3.38063 0.416963 3.40533 0.411694 3.43052 0.411694ZM3.43052 0.0823975C3.36153 0.0823975 3.29155 0.0963926 3.22471 0.125865C2.61584 0.393418 1.49969 0.880448 1.0064 1.07391C0.902505 1.11458 0.807339 1.17517 0.734235 1.25947C-1.07459 3.34622 1.12939 7.498 4.30727 10.6759C6.69467 13.0633 9.63118 14.9008 11.8294 14.9008C12.5573 14.9008 13.2047 14.6991 13.7238 14.2491C13.8081 14.176 13.8687 14.0808 13.9094 13.9771C14.1029 13.4838 14.5899 12.3676 14.8574 11.7588C14.962 11.521 14.8721 11.2438 14.6487 11.1112L11.5177 9.25315C11.437 9.20524 11.3463 9.1812 11.2554 9.1812C11.172 9.1812 11.0883 9.20145 11.0124 9.24228L8.86639 10.3943C8.78982 10.4355 8.70635 10.4554 8.62336 10.4554C8.49016 10.4554 8.35861 10.4037 8.25982 10.3049L6.4691 8.51421L4.67839 6.72349C4.51802 6.56312 4.4818 6.31665 4.58898 6.11693L5.74103 3.9709C5.82615 3.81218 5.8222 3.62036 5.73016 3.46543L3.87227 0.334474C3.77694 0.173942 3.60686 0.0823975 3.43052 0.0823975Z" fill="white"/>
</g>
<defs>
<clipPath id="clip0_27_172">
<rect width="15" height="15" fill="white"/>
</clipPath>
</defs>
</svg>
