<svg width="18" height="18" viewBox="0 0 18 18" fill="none" xmlns="http://www.w3.org/2000/svg">
<path d="M17.2885 4.58H6.68941C6.36203 4.58 6.09668 4.31465 6.09668 3.98727C6.09668 3.65988 6.36203 3.39453 6.68941 3.39453H17.2885C17.6159 3.39453 17.8812 3.65988 17.8812 3.98727C17.8812 4.31465 17.6159 4.58 17.2885 4.58Z" fill="white"/>
<path d="M14.7229 7.91496H6.68941C6.36203 7.91496 6.09668 7.64961 6.09668 7.32223C6.09668 6.99484 6.36203 6.72949 6.68941 6.72949H14.7229C15.0503 6.72949 15.3157 6.99484 15.3157 7.32223C15.3157 7.64961 15.0503 7.91496 14.7229 7.91496Z" fill="white"/>
<path d="M12.1578 11.2499H6.68941C6.36203 11.2499 6.09668 10.9846 6.09668 10.6572C6.09668 10.3298 6.36203 10.0645 6.68941 10.0645H12.1578C12.4852 10.0645 12.7505 10.3298 12.7505 10.6572C12.7505 10.9846 12.4852 11.2499 12.1578 11.2499Z" fill="white"/>
<path d="M9.59243 14.5849H6.68941C6.36203 14.5849 6.09668 14.3195 6.09668 13.9921C6.09668 13.6648 6.36203 13.3994 6.68941 13.3994H9.59223C9.91962 13.3994 10.185 13.6648 10.185 13.9921C10.185 14.3195 9.91982 14.5849 9.59243 14.5849Z" fill="white"/>
<path d="M2.39693 14.585C2.06955 14.585 1.8042 14.3196 1.8042 13.9922V3.98727C1.8042 3.65988 2.06955 3.39453 2.39693 3.39453C2.72432 3.39453 2.98967 3.65988 2.98967 3.98727V13.9922C2.98967 14.3198 2.72432 14.585 2.39693 14.585Z" fill="white"/>
<path d="M0.691855 6.28532C0.540115 6.28532 0.388375 6.22743 0.272792 6.11164C0.0412307 5.88028 0.0412307 5.50488 0.272792 5.27352L1.97769 3.56862C2.20906 3.33706 2.58446 3.33725 2.81582 3.56862L4.52092 5.27352C4.75248 5.50508 4.75248 5.88028 4.52092 6.11184C4.28936 6.3434 3.91396 6.34321 3.6826 6.11184L2.39656 4.826L1.11072 6.11184C0.995335 6.22743 0.843596 6.28532 0.691855 6.28532Z" fill="white"/>
</svg>
