<svg width="16" height="16" viewBox="0 0 16 16" fill="none" xmlns="http://www.w3.org/2000/svg">
<g clip-path="url(#clip0_21_42)">
<path d="M15.2118 15.8942H14.1463C14.1463 12.5002 11.3851 9.73903 7.99115 9.73903C4.5972 9.73903 1.8362 12.5002 1.8362 15.8942H0.770508C0.770508 11.9126 4.00973 8.67352 7.99115 8.67352C11.9727 8.67352 15.2118 11.9126 15.2118 15.8942Z" fill="white"/>
<path d="M7.99116 8.25237C5.74018 8.25237 3.90894 6.42112 3.90894 4.17014C3.90894 1.91915 5.74018 0.0879116 7.99116 0.0879116C10.242 0.0879116 12.0734 1.91915 12.0734 4.17014C12.0734 6.42112 10.242 8.25237 7.99116 8.25237ZM7.99116 1.15343C6.32782 1.15343 4.97463 2.50662 4.97463 4.16996C4.97463 5.83331 6.32782 7.18667 7.99116 7.18667C9.65451 7.18667 11.0077 5.83348 11.0077 4.16996C11.0077 2.50679 9.65451 1.15343 7.99116 1.15343Z" fill="white"/>
</g>
<defs>
<clipPath id="clip0_21_42">
<rect width="16" height="16" fill="white"/>
</clipPath>
</defs>
</svg>
